<svg width="32" height="32" viewBox="0 0 32 32" fill="none" xmlns="http://www.w3.org/2000/svg">
<path d="M16 32C24.8366 32 32 24.8366 32 16C32 7.16344 24.8366 0 16 0C7.16344 0 0 7.16344 0 16C0 24.8366 7.16344 32 16 32Z" fill="#C4C4C4"/>
<path d="M16.5601 15.375C15.8601 15.375 15.24 15.2285 14.66 14.877C14.07 14.5547 13.6301 14.1152 13.3101 13.5293C12.9601 12.9434 12.8101 12.3281 12.8101 11.625C12.8101 10.9512 12.9601 10.3359 13.3101 9.75C13.6301 9.1641 14.07 8.7246 14.66 8.373C15.24 8.0508 15.8601 7.875 16.5601 7.875C17.2401 7.875 17.8499 8.0508 18.4399 8.373C19.0199 8.7246 19.4601 9.1641 19.8101 9.75C20.1401 10.3359 20.3101 10.9512 20.3101 11.625C20.3101 12.3281 20.1401 12.9434 19.8101 13.5293C19.4601 14.1152 19.0199 14.5547 18.4399 14.877C17.8499 15.2285 17.2401 15.375 16.5601 15.375ZM19.2 16.3125C19.9 16.3125 20.55 16.4883 21.16 16.8398C21.75 17.1914 22.25 17.6895 22.6 18.2754C22.95 18.8906 23.12 19.5352 23.12 20.2383V21.4688C23.12 21.8789 22.98 22.2012 22.71 22.4648C22.42 22.7578 22.1 22.875 21.72 22.875H11.41C11 22.875 10.67 22.7578 10.41 22.4648C10.12 22.2012 10 21.8789 10 21.4688V20.2383C10 19.5352 10.18 18.8906 10.53 18.2754C10.88 17.6895 11.35 17.1914 11.96 16.8398C12.55 16.4883 13.2201 16.3125 13.9301 16.3125H14.42C15.1 16.6348 15.8001 16.7812 16.5601 16.7812C17.2901 16.7812 18 16.6348 18.7 16.3125H19.2Z" fill="white"/>
</svg>
